<svg xmlns="http://www.w3.org/2000/svg" viewBox="0 0 935.1172 1010"><path fill="#CCD1D9" d="M582.584 878.305c0 66.953-47.205 111.495-114.177 111.495-66.952 0-118.537-44.542-118.537-111.495"/><path fill="#656872" d="M468.407 1010c-80.385 0-138.737-55.393-138.737-131.695 0-11.164 9.055-20.2 20.2-20.2 11.165 0 20.2 9.036 20.2 20.2 0 53.756 40.44 91.295 98.337 91.295 56.2 0 93.978-36.692 93.978-91.295 0-11.164 9.034-20.2 20.199-20.2 11.147 0 20.2 9.036 20.2 20.2 0 77.546-55.254 131.695-134.377 131.695z"/><path fill="#BDBF6D" d="M582.584 664.982v213.323H349.87V664.982"/><path fill="#656872" d="M582.584 898.506H349.87c-11.145 0-20.2-9.035-20.2-20.201V664.982c0-11.166 9.055-20.2 20.2-20.2 11.165 0 20.2 9.034 20.2 20.2v193.124h192.315V664.981c0-11.166 9.034-20.2 20.199-20.2 11.147 0 20.2 9.034 20.2 20.2v213.323c0 11.166-9.053 20.2-20.2 20.2zM233.07 88.888a20.135 20.135 0 0 1-14.283-5.918L170.3 34.482c-7.89-7.89-7.89-20.673 0-28.564 7.89-7.89 20.674-7.89 28.564 0l48.488 48.488c7.89 7.89 7.89 20.673 0 28.564a20.135 20.135 0 0 1-14.282 5.918zM717.87 88.888a20.136 20.136 0 0 1-14.283-5.918c-7.89-7.89-7.89-20.674 0-28.564l48.488-48.488c7.89-7.89 20.673-7.89 28.564 0 7.89 7.89 7.89 20.673 0 28.564L732.15 82.97a20.136 20.136 0 0 1-14.282 5.918zM184.581 670.644a20.135 20.135 0 0 1-14.282-5.918c-7.89-7.891-7.89-20.673 0-28.564l48.488-48.488c7.89-7.89 20.673-7.89 28.564 0 7.89 7.89 7.89 20.674 0 28.564l-48.488 48.487a20.135 20.135 0 0 1-14.282 5.919zM766.357 670.644a20.134 20.134 0 0 1-14.282-5.918l-48.488-48.488c-7.89-7.89-7.89-20.673 0-28.564 7.89-7.89 20.674-7.89 28.564 0l48.488 48.488c7.89 7.89 7.89 20.673 0 28.564a20.134 20.134 0 0 1-14.282 5.918zM97.784 355.512H20.2c-11.146 0-20.2-9.035-20.2-20.2s9.054-20.2 20.2-20.2h77.584c11.146 0 20.2 9.034 20.2 20.2 0 11.165-9.054 20.2-20.2 20.2zM914.918 355.512h-77.564c-11.166 0-20.201-9.035-20.201-20.2s9.035-20.2 20.2-20.2h77.565c11.146 0 20.2 9.034 20.2 20.2 0 11.165-9.055 20.2-20.2 20.2z"/><path fill="#FFCA70" d="M681.139 129.663c-113.567-113.586-297.714-113.586-411.34 0C156.176 243.189 153.967 427.415 267.61 541c25.112 25.072 43.478 43.753 82.26 57.74v85.652h232.714V598.74c38.764-13.986 66.42-32.667 91.512-57.739 113.625-113.586 120.648-297.753 7.043-411.338z"/><path fill="#656872" d="M582.584 704.594H349.87c-11.145 0-20.2-9.035-20.2-20.201V612.45c-33.93-14.795-53.3-34.146-75.356-56.16-59.672-59.654-91.649-137.83-91.038-221.136.612-82.91 33.378-160.968 92.242-219.774 58.765-58.745 136.882-91.097 219.97-91.097S636.676 56.635 695.42 115.38c58.47 58.45 89.578 136.745 87.605 220.425-1.952 82.477-35.566 160.417-94.647 219.478-25.645 25.625-52.473 43.635-85.594 57.305v71.805c0 11.166-9.053 20.2-20.2 20.2zm-212.514-40.4h192.315V598.74c0-8.521 5.326-16.116 13.335-18.996 33.574-12.112 59.514-28.466 84.094-53.025 51.704-51.684 81.116-119.82 82.812-191.86 1.716-72.535-25.19-140.336-75.77-190.915-51.112-51.111-119.069-79.26-191.367-79.26-72.298 0-140.276 28.149-191.407 79.26-51.309 51.27-79.873 119.287-80.405 191.506-.533 72.397 27.242 140.316 78.216 191.269 24.954 24.934 40.794 40.755 74.842 53.025 8.01 2.88 13.335 10.475 13.335 18.996v65.453z"/><g><path fill="#656872" d="M338.35 492.63a20.134 20.134 0 0 1-14.282-5.917c-40.46-40.46-62.73-94.214-62.73-151.382 0-57.147 22.27-110.922 62.73-151.4 7.89-7.891 20.673-7.891 28.564 0 7.89 7.89 7.89 20.673.02 28.563-32.845 32.845-50.915 76.48-50.915 122.838 0 46.377 18.07 89.992 50.895 122.817 7.89 7.891 7.89 20.673 0 28.564a20.135 20.135 0 0 1-14.282 5.918z"/></g><g><path fill="#656872" d="M565.679 836.406H366.776c-11.166 0-20.2-9.035-20.2-20.2s9.034-20.2 20.2-20.2h198.903c11.145 0 20.2 9.035 20.2 20.2s-9.055 20.2-20.2 20.2z"/></g><g><path fill="#656872" d="M565.679 769.572H366.776c-11.166 0-20.2-9.035-20.2-20.199 0-11.166 9.034-20.201 20.2-20.201h198.903c11.145 0 20.2 9.035 20.2 20.201 0 11.164-9.055 20.2-20.2 20.2z"/></g></svg>