<svg xmlns="http://www.w3.org/2000/svg" viewBox="0 0 1009.9999 1009.998"><path fill="#FFCA70" d="M317.38 598.77l93.77 93.79-296.974 297.035-93.77-93.852z"/><path fill="#BDC3C7" d="M989.596 333c0 172.677-139.96 312.675-312.656 312.675-172.657 0-312.655-139.998-312.655-312.675 0-172.638 139.998-312.597 312.655-312.597 172.696 0 312.656 139.96 312.656 312.597z"/><g><path fill="#656872" d="M676.94 666.08c-183.646 0-333.06-149.425-333.06-333.08 0-183.616 149.414-333 333.06-333C860.586 0 1010 149.384 1010 333c0 183.655-149.414 333.08-333.06 333.08zm0-625.272C515.79 40.808 384.69 171.88 384.69 333c0 161.16 131.101 292.27 292.251 292.27 161.15 0 292.251-131.11 292.251-292.27 0-161.12-131.101-292.192-292.25-292.192z"/><path fill="#656872" d="M378.71 660.1l-28.852-28.851 93.81-93.81 28.853 28.851-93.81 93.81z"/><path fill="#656872" d="M114.176 1009.998c-5.42 0-10.61-2.151-14.436-5.978L5.97 910.17c-7.961-7.97-7.961-20.882.009-28.853l296.974-296.974a20.408 20.408 0 0 1 14.426-5.977c5.41 0 10.6 2.152 14.427 5.977l93.77 93.79c7.97 7.972 7.97 20.884 0 28.854l-296.974 297.034a20.404 20.404 0 0 1-14.426 5.977zM49.258 895.743l64.918 64.979L382.298 692.56l-64.919-64.939L49.258 895.743zM872.511 350.733c-11.267 0-20.404-9.126-20.404-20.404 0-84.246-68.555-152.79-152.81-152.79-11.268 0-20.405-9.127-20.405-20.404 0-11.279 9.137-20.405 20.405-20.405 106.762 0 193.619 86.857 193.619 193.6 0 11.277-9.136 20.403-20.405 20.403z"/></g></svg>