<svg xmlns="http://www.w3.org/2000/svg" viewBox="0 0 870.9449 1010"><path fill="#ED7161" d="M692.347 760.701L743.9 882.217l-128.889-4.54-86.262 95.846-60.554-142.605"/><path fill="#656872" d="M522.656 1010l-72.758-171.321 36.592-15.523 48.35 113.892 71.615-79.549 106.982 3.764-39.386-92.8 36.593-15.523 63.717 150.232-150.795-5.317L522.656 1010z"/><path fill="#ED7161" d="M403.43 825.814l-59.662 147.71-87.931-94.334-128.792 6.791 56.577-140.122"/><path fill="#656872" d="M350.5 1009.884l-102.87-110.36-150.677 7.935 68.237-169.031 36.864 14.861-44.916 111.214 106.907-5.646 72.99 78.307 47.982-118.799 36.825 14.9-71.341 176.619z"/><g><path fill="#FFCA70" d="M851.077 435.462c0 21.169-38.417 39.038-41.638 59.274-3.259 20.78 27.746 49.612 21.382 69.207-6.461 19.946-48.564 25.03-57.935 43.422-9.488 18.627 11 55.686-1.183 72.41-12.263 16.86-53.862 8.73-68.53 23.399-14.707 14.668-6.595 56.265-23.418 68.567-16.763 12.146-53.802-8.382-72.409 1.126-18.393 9.41-23.495 51.454-43.441 57.953-19.558 6.346-48.389-24.66-69.169-21.38-20.275 3.2-38.145 41.636-59.274 41.636-21.148 0-39.037-38.435-59.254-41.637-20.78-3.279-49.63 27.727-69.208 21.381-19.925-6.499-25.009-48.544-43.383-57.953-18.626-9.508-55.684 11.02-72.428-1.165-16.822-12.263-8.731-53.86-23.419-68.528-14.687-14.707-56.266-6.559-68.528-23.399-12.223-16.763 8.323-53.822-1.164-72.41-9.41-18.392-51.494-23.514-57.954-43.422-6.384-19.595 24.621-48.427 21.38-69.207-3.22-20.236-41.636-38.144-41.636-59.274 0-21.128 38.416-39.017 41.637-59.253 3.24-20.78-27.784-49.612-21.381-69.17 6.441-19.926 48.505-25.067 57.935-43.46 9.468-18.588-11.04-55.646 1.144-72.39 12.262-16.822 53.861-8.711 68.548-23.419 14.687-14.687 6.578-56.285 23.418-68.528 16.745-12.204 53.803 8.304 72.41-1.164 18.374-9.41 23.496-51.494 43.402-57.955 19.597-6.363 48.409 24.622 69.227 21.382 20.217-3.201 38.106-41.637 59.254-41.637 21.149 0 39.037 38.436 59.274 41.637 20.78 3.24 49.611-27.745 69.208-21.362 19.926 6.48 25.028 48.525 43.402 57.935 18.646 9.507 55.685-11.04 72.429 1.164 16.822 12.262 8.73 53.841 23.418 68.528 14.687 14.707 56.286 6.597 68.51 23.419 12.222 16.744-8.305 53.802 1.183 72.41 9.41 18.373 51.474 23.495 57.935 43.421 6.364 19.577-24.64 48.409-21.382 69.189 3.22 20.236 41.638 38.125 41.638 59.253z"/><path fill="#656872" d="M435.462 870.944c-19.596 0-33.526-14.493-45.827-27.298-4.91-5.123-13.155-13.699-16.628-14.61-4.288.019-13.97 5.219-21.051 9.003-12.418 6.635-25.243 13.504-39.25 13.504-4.114 0-8.092-.602-11.836-1.824-18.53-6.034-27.222-24.059-34.905-39.95-3.143-6.48-8.362-17.306-11.466-19.246-.098 0-12.244.194-22.604 2.018-8.343 1.493-16.958 3.025-25.475 3.025-10.904 0-19.713-2.56-26.93-7.798-15.62-11.389-18.336-31.121-20.741-48.545-1.01-7.197-2.659-19.246-5.064-22.041-2.717-2.328-14.766-3.977-21.964-4.967-17.423-2.405-37.155-5.121-48.544-20.74-11.35-15.58-7.858-35.176-4.792-52.484 1.28-7.198 3.434-19.247 1.979-22.641-1.863-2.969-12.728-8.227-19.208-11.37-15.91-7.683-33.935-16.415-39.93-34.906-5.937-18.237 3.434-35.718 11.68-51.143 3.492-6.538 9.352-17.462 8.964-21.167-.873-3.3-9.469-11.565-14.59-16.492C14.492 468.97 0 455.039 0 435.462s14.493-33.507 27.28-45.789c5.14-4.947 13.717-13.193 14.629-16.686.349-3.511-5.51-14.435-9.003-20.954-8.265-15.444-17.636-32.925-11.66-51.183 5.956-18.432 23.98-27.182 39.89-34.885 6.5-3.143 17.346-8.401 19.266-11.505 1.397-3.26-.756-15.328-2.037-22.526-3.065-17.287-6.557-36.865 4.773-52.444 11.39-15.62 31.121-18.336 48.545-20.741 7.198-.99 19.266-2.659 22.06-5.064 2.309-2.697 3.977-14.766 4.967-21.964 2.406-17.423 5.142-37.174 20.78-48.544 7.198-5.258 16.006-7.8 26.949-7.8 8.518 0 17.152 1.533 25.475 3.008 10.632 1.882 22.643 2.018 22.7 1.96 2.93-1.844 8.188-12.69 11.332-19.19 7.683-15.89 16.394-33.934 34.904-39.929 3.745-1.223 7.742-1.843 11.855-1.843 14.008 0 26.853 6.888 39.27 13.523 7.062 3.784 16.763 8.964 21.051 8.964 3.454-.873 11.7-9.45 16.609-14.571C401.935 14.494 415.866 0 435.462 0s33.527 14.494 45.809 27.28c4.928 5.14 13.174 13.717 16.666 14.629 4.25-.039 13.932-5.22 20.994-8.984 12.417-6.655 25.262-13.523 39.27-13.523 4.132 0 8.129.62 11.893 1.844 18.49 6.014 27.202 24.039 34.905 39.93 3.124 6.48 8.362 17.306 11.466 19.246.097 0 12.224-.174 22.604-2.018 8.323-1.494 16.938-3.027 25.476-3.027 10.904 0 19.73 2.561 26.93 7.8 15.618 11.39 18.335 31.121 20.74 48.544 1.01 7.198 2.659 19.267 5.064 22.041 2.717 2.328 14.785 3.997 21.982 4.987 17.424 2.405 37.157 5.141 48.506 20.76 11.35 15.541 7.877 35.138 4.793 52.425-1.281 7.217-3.415 19.285-1.96 22.68 1.862 2.95 12.708 8.208 19.189 11.351 15.91 7.683 33.934 16.414 39.93 34.924 5.917 18.219-3.434 35.68-11.68 51.105-3.493 6.52-9.352 17.462-8.964 21.168.873 3.318 9.448 11.564 14.59 16.511 12.786 12.282 27.28 26.213 27.28 45.79 0 19.596-14.494 33.546-27.299 45.828-5.123 4.928-13.698 13.174-14.61 16.666-.349 3.531 5.49 14.455 9.003 20.993 8.246 15.425 17.597 32.887 11.68 51.124-5.996 18.51-24.04 27.241-39.95 34.925-6.46 3.124-17.287 8.362-19.226 11.447-1.417 3.298.736 15.406 2.017 22.622 3.065 17.288 6.538 36.846-4.793 52.407-11.388 15.637-31.16 18.353-48.601 20.76-7.18.99-19.21 2.638-21.984 5.025-2.328 2.717-3.997 14.785-4.986 21.982-2.405 17.405-5.122 37.137-20.722 48.545-7.256 5.258-16.045 7.78-26.91 7.78-8.537 0-17.152-1.533-25.514-3.007-10.632-1.921-22.642-1.98-22.7-1.98-2.99 1.864-8.247 12.71-11.37 19.19-7.703 15.89-16.415 33.915-34.924 39.949-3.764 1.223-7.742 1.824-11.855 1.824-13.989 0-26.815-6.87-39.23-13.504-7.063-3.784-16.745-8.984-21.034-8.984-3.511.892-11.777 9.488-16.704 14.63-12.282 12.766-26.194 27.26-45.77 27.26zm-62.455-81.625c2.134 0 4.23.175 6.305.505 16.182 2.56 28.29 15.172 38.98 26.29 5.025 5.238 13.348 13.892 17.17 15.036 3.803-1.144 12.107-9.778 17.113-14.998 10.71-11.156 22.856-23.787 39.057-26.328 15.91-2.561 31.664 5.451 46.1 13.174 6.558 3.512 16.453 8.809 20.469 8.809 2.425-1.61 7.8-12.71 11-19.344 6.753-13.95 14.417-29.764 29.104-37.291 12.554-6.441 30.947-4.754 47.73-1.746 10.924 1.94 22.39 1.978 22.448 1.998 1.669-2.25 3.337-14.377 4.346-21.613 2.133-15.446 4.54-32.965 16.317-44.704 11.7-11.699 29.18-14.105 44.606-16.24 7.237-.99 19.363-2.658 22.138-5.083.93-2.696-1.183-14.629-2.465-21.768-2.716-15.387-5.8-32.81 1.766-47.672 7.49-14.707 23.322-22.371 37.291-29.123 6.616-3.201 17.695-8.556 19.577-11.739.019-2.832-5.665-13.445-9.061-19.77-7.392-13.833-15.793-29.491-13.194-46.06 2.581-16.2 15.193-28.328 26.31-39 5.025-4.83 14.377-13.814 15.114-17.48-.756-3.066-9.74-11.7-15.095-16.861-11.136-10.69-23.748-22.797-26.31-38.979-2.618-16.608 5.783-32.266 13.175-46.1 3.396-6.325 9.08-16.938 8.808-20.566-1.629-2.367-12.708-7.741-19.324-10.943-13.95-6.752-29.763-14.396-37.271-29.064-7.586-14.882-4.502-32.305-1.766-47.671 1.262-7.14 3.396-19.092 1.979-22.468-2.31-1.746-14.377-3.415-21.594-4.404-15.445-2.135-32.946-4.54-44.703-16.298-11.72-11.738-14.145-29.22-16.26-44.664-.988-7.043-2.6-18.742-4.928-21.885-.077 0-1.222-.156-3.394-.156-5.026 0-11.584 1.164-18.53 2.406-16.724 2.988-35.118 4.695-47.691-1.746-14.706-7.528-22.35-23.34-29.103-37.291-3.202-6.616-8.556-17.695-11.757-19.577-3.318.233-12.845 5.336-19.79 9.041-14.397 7.703-30.093 15.658-46.003 13.194-16.22-2.58-28.347-15.192-39.038-26.31-5.16-5.374-13.794-14.357-17.461-15.114-3.085.757-11.72 9.74-16.88 15.115-10.69 11.117-22.798 23.729-38.98 26.29-16.22 2.56-31.663-5.472-46.099-13.175-6.946-3.725-16.453-8.827-20.508-8.827-2.425 1.649-7.8 12.727-11.001 19.343-6.752 13.97-14.396 29.783-29.065 37.291-12.65 6.442-30.946 4.715-47.67 1.766-10.963-1.96-22.43-1.998-22.488-1.998-1.726 2.309-3.414 14.416-4.404 21.633-2.134 15.444-4.54 32.926-16.278 44.664-11.739 11.758-29.24 14.163-44.684 16.298-7.237.989-19.344 2.677-22.118 5.083-.912 2.678 1.222 14.63 2.483 21.77 2.736 15.366 5.84 32.789-1.726 47.632-7.529 14.707-23.341 22.37-37.291 29.122-6.617 3.202-17.695 8.576-19.577 11.778-.02 2.852 5.665 13.426 9.04 19.751 7.413 13.814 15.794 29.472 13.214 46.022-2.58 16.24-15.192 28.347-26.329 39.037-5.355 5.161-14.338 13.795-15.095 17.442.757 3.066 9.74 11.72 15.095 16.88 11.137 10.691 23.749 22.818 26.31 38.98 2.6 16.608-5.782 32.266-13.175 46.06-3.395 6.345-9.08 16.958-8.828 20.605 1.65 2.368 12.728 7.742 19.345 10.943 13.95 6.752 29.782 14.416 37.31 29.103 7.567 14.843 4.482 32.266 1.727 47.633-1.262 7.16-3.396 19.112-1.98 22.487 2.29 1.746 14.397 3.416 21.615 4.404 15.444 2.115 32.945 4.521 44.703 16.28 11.718 11.718 14.144 29.218 16.258 44.663.99 7.043 2.6 18.723 4.909 21.885.253.039 1.261.156 3.415.156 5.005 0 11.583-1.183 18.529-2.406 16.725-2.988 35.099-4.695 47.71 1.746 14.687 7.527 22.332 23.34 29.084 37.31 3.201 6.616 8.556 17.714 11.758 19.596 3.24-.271 12.747-5.355 19.712-9.08 12.553-6.713 25.533-13.679 39.794-13.679z"/></g><g><path fill="#BDBF6D" d="M694.773 435.462c0 143.228-116.103 259.311-259.31 259.311-143.208 0-259.31-116.083-259.31-259.31 0-143.208 116.102-259.31 259.31-259.31 143.206 0 259.31 116.102 259.31 259.31z"/></g><g><path fill="#656872" d="M435.462 612.256c-89.424 0-162.182-78.308-162.182-174.562s72.758-174.562 162.182-174.562c89.445 0 162.203 78.307 162.203 174.562s-72.758 174.562-162.203 174.562zm0-309.388c-67.52 0-122.447 60.477-122.447 134.826 0 74.349 54.928 134.826 122.447 134.826 67.52 0 122.467-60.477 122.467-134.826 0-74.35-54.947-134.826-122.467-134.826z"/><path fill="#656872" d="M558.9 614.04a19.805 19.805 0 0 1-14.048-5.82l-90.434-90.434c-7.76-7.76-7.76-20.333 0-28.095 7.761-7.76 20.334-7.76 28.095 0l90.434 90.434c7.76 7.762 7.76 20.334 0 28.095a19.807 19.807 0 0 1-14.047 5.82z"/></g></svg>