<svg xmlns="http://www.w3.org/2000/svg" viewBox="0 0 1010 1010"><path fill="#ECF0F1" d="M988.959 218.349v66.823"/><path fill="#BDC3C7" d="M21.041 21.041h967.918v197.307H21.041z"/><path fill="#BDBF6D" d="M21.041 218.349h967.918v770.61H21.041z"/><path fill="#656872" d="M1010 1010H0V0h1010v1010zM42.083 967.916h925.833V42.083H42.083v925.833z"/><path fill="#656872" d="M984.037 239.39h-949.7v-42.083h949.7v42.083z"/><g><path fill="#ECF0F1" d="M133.175 101.715v40.316"/><path fill="#656872" d="M154.216 142.031h-42.083v-40.316h42.083v40.316z"/><path fill="#ECF0F1" d="M226.157 101.715v40.316"/><path fill="#656872" d="M247.199 142.031h-42.084v-40.316H247.2v40.316z"/><g><path fill="#ECF0F1" d="M319.087 101.715v40.316"/><path fill="#656872" d="M340.129 142.031h-42.083v-40.316h42.083v40.316z"/></g></g><g><path fill="#656872" d="M876.825 142.894H451.893v-42.083h424.932v42.083z"/></g><g><path fill="#FFCA70" d="M354.153 393.71L162.2 585.673l191.953 191.943 65.458-65.447-126.497-126.496 126.497-126.518z"/><path fill="#656872" d="M354.153 798.658a20.974 20.974 0 0 1-14.877-6.164L147.322 600.551c-8.219-8.22-8.219-21.535 0-29.754l191.954-191.965c7.891-7.89 21.864-7.89 29.755 0l65.457 65.447c8.219 8.219 8.219 21.535 0 29.754l-111.62 111.64 111.62 111.62a21.062 21.062 0 0 1 6.164 14.877c0 5.59-2.219 10.932-6.164 14.877l-65.457 65.447a20.975 20.975 0 0 1-14.878 6.164zm-162.2-212.984l162.2 162.19 35.703-35.694-111.62-111.62c-8.218-8.219-8.218-21.534 0-29.753l111.62-111.64-35.703-35.694-162.2 162.21z"/><g><path fill="#FFCA70" d="M655.847 393.71l-65.458 65.446 126.538 126.518L590.389 712.17l65.458 65.447L847.8 585.674z"/><path fill="#656872" d="M655.847 798.658a20.977 20.977 0 0 1-14.878-6.164l-65.457-65.447a21.024 21.024 0 0 1-6.164-14.877 21.062 21.062 0 0 1 6.164-14.877l111.65-111.62-111.65-111.64a21.062 21.062 0 0 1-6.164-14.877 21.062 21.062 0 0 1 6.164-14.877l65.457-65.447c7.89-7.89 21.864-7.89 29.755 0l191.954 191.965c8.219 8.219 8.219 21.534 0 29.754L670.724 792.494a20.975 20.975 0 0 1-14.877 6.164zm-35.693-86.488l35.693 35.693 162.2-162.19-162.2-162.21-35.703 35.693 111.66 111.64a21.025 21.025 0 0 1 6.165 14.878 21.062 21.062 0 0 1-6.164 14.877L620.155 712.17z"/></g></g></svg>