<?xml version="1.0" standalone="no"?>
<!DOCTYPE svg PUBLIC "-//W3C//DTD SVG 20010904//EN"
 "http://www.w3.org/TR/2001/REC-SVG-20010904/DTD/svg10.dtd">
<svg version="1.0" xmlns="http://www.w3.org/2000/svg"
 width="300.000000pt" height="300.000000pt" viewBox="0 0 300.000000 300.000000"
 preserveAspectRatio="xMidYMid meet">
<metadata>
Created by potrace 1.11, written by Peter Selinger 2001-2013
</metadata>
<g transform="translate(0.000000,300.000000) scale(0.100000,-0.100000)"
fill="#000000" stroke="none">
<path d="M1069 1986 c-2 -2 -22 -7 -44 -10 -104 -16 -246 -117 -310 -221 -32
-53 -63 -148 -68 -213 l-5 -53 121 3 121 3 4 35 c8 81 73 163 156 201 47 21
132 19 187 -4 45 -18 100 -71 124 -117 21 -41 37 -193 19 -186 -19 7 -10 -25
11 -40 10 -8 16 -17 12 -20 -4 -4 -2 -13 4 -21 9 -10 8 -13 -1 -13 -7 0 -1
-11 14 -25 24 -22 32 -35 22 -35 -3 0 -11 6 -18 13 -7 7 -28 23 -46 36 -18 13
-31 26 -27 29 3 3 11 0 17 -6 7 -7 17 -12 23 -12 5 1 -1 10 -15 22 l-25 21 25
-7 c24 -7 24 -6 6 8 -21 17 -41 21 -32 7 7 -10 -32 -54 -62 -70 -12 -7 -22
-16 -22 -20 0 -16 126 -202 132 -195 4 3 -23 49 -59 101 -36 52 -63 96 -61 99
3 2 35 -36 72 -86 37 -49 72 -90 78 -90 12 0 15 -4 -70 102 -63 79 -78 106
-42 73 21 -19 28 -7 8 13 -9 9 -9 12 1 12 7 0 9 5 6 10 -3 6 -1 10 5 10 7 0 9
-8 5 -19 -3 -11 -1 -23 6 -26 8 -5 8 -9 0 -14 -7 -4 11 -33 46 -75 32 -37 59
-63 61 -57 2 6 -18 34 -45 62 -26 28 -50 56 -52 62 -4 12 38 -23 91 -77 15
-16 31 -26 35 -22 4 3 -27 38 -68 76 -41 38 -70 69 -65 70 11 0 115 -88 141
-120 149 -185 408 -239 616 -129 147 79 249 238 249 391 l0 59 -112 -5 c-62
-2 -115 -5 -118 -5 -3 -1 -6 -19 -7 -41 -3 -50 -31 -105 -75 -147 -122 -117
-328 -73 -396 86 -18 43 -24 163 -8 173 7 5 4 8 -6 8 -10 0 -18 5 -18 11 0 6
10 8 23 5 12 -3 17 -3 10 0 -11 5 -8 10 43 66 9 9 13 21 9 27 -3 6 -1 11 4 11
6 0 11 -5 11 -10 0 -6 9 -2 21 9 l20 19 -51 101 c-28 56 -56 101 -62 101 -5 0
7 -30 28 -67 21 -38 46 -83 56 -102 11 -18 17 -35 14 -38 -2 -3 -10 6 -17 19
-10 19 -94 152 -106 167 -2 2 -6 2 -9 -1 -3 -4 22 -48 56 -98 34 -50 60 -93
58 -95 -2 -3 -34 36 -72 86 -37 50 -70 88 -73 85 -4 -4 31 -62 47 -76 18 -16
72 -92 67 -96 -2 -3 -13 6 -24 19 -49 62 -114 129 -120 123 -4 -4 29 -42 72
-86 43 -44 77 -81 74 -84 -2 -2 -42 31 -88 75 -47 43 -87 76 -90 73 -3 -3 33
-41 79 -85 47 -43 76 -76 65 -72 -18 6 -18 5 -6 -10 12 -16 12 -17 -5 -10 -17
6 -17 5 -5 -10 18 -23 2 -21 -29 3 -14 10 -21 22 -17 26 4 4 -3 19 -15 32 -22
23 -22 24 -2 14 28 -15 51 -42 35 -42 -7 0 -9 -4 -6 -10 3 -5 11 -10 16 -10 6
0 7 5 4 10 -3 6 -1 10 5 10 6 0 -40 51 -103 113 -121 122 -186 163 -295 186
-51 11 -154 15 -163 7z m556 -364 c-3 -3 -11 0 -18 7 -9 10 -8 11 6 5 10 -3
15 -9 12 -12z m-230 -222 c3 -6 -1 -7 -9 -4 -18 7 -21 14 -7 14 6 0 13 -4 16
-10z"/>
<path d="M1825 1925 c14 -149 23 -184 18 -65 -3 63 -9 120 -15 125 -6 7 -7
-14 -3 -60z"/>
<path d="M1860 1873 c0 -110 2 -121 18 -118 9 1 23 -2 30 -8 8 -6 16 -6 22 -1
10 11 63 224 57 231 -9 8 -38 -99 -54 -194 -3 -18 -9 -33 -13 -33 -4 0 1 46
11 103 21 117 23 135 10 122 -5 -6 -11 -30 -14 -55 -14 -117 -20 -150 -29
-150 -5 0 -7 4 -4 9 9 14 19 217 10 208 -8 -8 -10 -20 -14 -154 -2 -41 -7 -70
-12 -67 -5 3 -8 50 -5 104 2 54 0 105 -4 112 -5 7 -9 -40 -9 -109z"/>
<path d="M1780 1977 c0 -20 40 -221 46 -226 6 -5 1 41 -10 94 -2 11 -7 44 -11
73 -4 29 -11 55 -16 58 -5 3 -9 3 -9 1z"/>
<path d="M1744 1953 c21 -76 45 -163 50 -187 4 -15 10 -26 13 -23 4 5 0 28
-22 117 -8 29 -16 65 -20 85 -3 14 -10 25 -16 25 -6 0 -8 -8 -5 -17z"/>
<path d="M1982 1863 c-35 -109 -36 -147 -5 -122 15 12 16 12 10 -4 -4 -11 -3
-16 3 -12 6 3 10 0 10 -7 0 -7 9 -2 20 12 11 14 20 30 20 35 0 6 -9 -1 -20
-15 -11 -14 -20 -20 -20 -15 0 6 4 15 9 20 18 21 92 167 87 173 -8 8 -8 8 -60
-93 -56 -109 -60 -93 -7 25 22 47 37 87 35 89 -9 9 -22 -16 -60 -113 -49 -125
-56 -111 -9 19 19 54 32 102 28 106 -5 5 -23 -40 -41 -98z"/>
<path d="M1732 1878 c52 -141 57 -153 57 -142 1 5 -15 57 -34 115 -19 57 -35
105 -35 107 0 1 -4 2 -9 2 -5 0 4 -37 21 -82z"/>
<path d="M1670 1943 c0 -6 16 -46 36 -89 20 -44 40 -90 45 -103 5 -13 12 -21
16 -18 3 4 -1 21 -10 39 -8 18 -27 62 -42 98 -27 65 -45 94 -45 73z"/>
<path d="M2081 1849 c-24 -39 -41 -72 -39 -75 3 -2 26 27 51 65 26 39 43 72
39 75 -4 2 -27 -27 -51 -65z"/>
<path d="M2098 1818 c-70 -93 -79 -110 -67 -129 5 -7 9 -9 9 -4 0 6 5 2 11 -8
7 -12 17 -16 32 -12 22 6 22 6 2 -11 -20 -16 -19 -16 5 -10 23 7 24 6 7 -8
-18 -14 -18 -14 2 -21 12 -4 51 9 106 35 48 22 91 40 96 40 5 0 9 5 9 10 0 16
-10 13 -108 -36 -52 -25 -95 -44 -98 -42 -2 3 38 27 88 55 51 28 94 56 97 64
3 9 -5 7 -25 -6 -53 -35 -115 -67 -120 -63 -2 3 28 26 67 52 39 26 68 50 65
53 -4 5 -74 -33 -86 -47 -3 -3 -20 -17 -39 -30 -19 -13 -29 -26 -23 -28 14 -4
6 -22 -9 -22 -6 0 -8 4 -5 9 4 5 1 11 -5 13 -10 3 60 66 126 112 11 8 17 18
13 21 -7 7 -103 -66 -120 -90 -4 -5 -10 -6 -13 -3 -4 4 22 34 57 67 34 33 58
60 53 61 -6 0 -45 -34 -88 -76 -43 -43 -79 -75 -81 -73 -3 2 24 36 60 74 64
70 94 111 77 104 -6 -2 -42 -41 -82 -86 -40 -46 -75 -83 -78 -83 -6 0 46 71
79 109 34 38 60 81 49 81 -5 0 -33 -33 -63 -72z m-3 -128 c-10 -11 -23 -20
-28 -20 -6 0 -2 9 8 20 10 11 23 20 28 20 6 0 2 -9 -8 -20z"/>
<path d="M2210 1635 c-41 -19 -83 -34 -93 -34 -12 -1 -15 -5 -10 -13 4 -7 8
-20 8 -28 0 -8 3 -20 7 -25 8 -12 98 -7 98 6 0 7 -43 4 -77 -6 -7 -2 -15 -1
-17 4 -3 4 47 16 110 26 63 10 114 22 114 27 0 10 -17 10 -60 -2 -63 -17 -178
-36 -170 -27 3 2 53 17 113 32 59 16 107 32 107 37 0 5 -9 7 -19 3 -42 -13
-157 -46 -178 -50 -50 -11 -17 5 82 40 58 21 105 39 105 41 0 12 -55 -2 -120
-31z"/>
<path d="M2263 1552 c-18 -2 -33 -8 -33 -13 0 -6 8 -8 18 -5 9 3 36 6 60 8 23
1 42 6 42 10 0 5 -12 7 -27 6 -16 -2 -43 -4 -60 -6z"/>
<path d="M756 1473 c-1 -1 -25 -3 -54 -4 -28 -2 -52 -7 -52 -12 0 -9 33 -7
175 10 72 8 70 15 -4 11 -34 -2 -63 -4 -65 -5z"/>
<path d="M839 1456 c-4 -4 -20 -6 -136 -22 -29 -3 -53 -11 -53 -17 0 -9 24 -7
86 7 12 2 37 7 55 10 19 4 50 10 69 15 30 8 31 9 9 10 -14 1 -28 -1 -30 -3z"/>
<path d="M765 1413 c-106 -27 -112 -30 -102 -39 3 -3 39 4 79 16 179 53 192
66 23 23z"/>
<path d="M805 1394 c-38 -14 -85 -29 -102 -35 -18 -5 -33 -15 -33 -21 0 -6 7
-7 18 -3 9 4 60 23 112 42 52 19 97 36 99 39 10 10 -29 1 -94 -22z"/>
<path d="M781 1353 c-58 -26 -100 -48 -93 -51 6 -2 44 12 85 31 144 68 159 62
23 -8 -52 -27 -92 -53 -90 -57 3 -5 20 0 37 10 88 53 128 74 133 69 3 -2 -32
-28 -77 -56 -45 -29 -79 -55 -75 -58 3 -3 38 15 77 41 39 26 73 45 76 43 2 -3
-25 -27 -61 -53 -59 -44 -78 -64 -60 -64 16 0 146 114 135 118 -9 3 -9 7 0 18
6 8 16 14 21 14 6 0 5 -7 -2 -15 -15 -18 1 -20 18 -3 9 9 6 17 -13 34 -16 15
-20 24 -12 27 8 4 7 6 -3 6 -8 0 -62 -21 -119 -46z m124 7 c-3 -5 -11 -10 -16
-10 -6 0 -7 5 -4 10 3 6 11 10 16 10 6 0 7 -4 4 -10z"/>
<path d="M850 1250 c-47 -44 -80 -79 -75 -79 6 0 41 28 80 64 40 37 72 59 76
53 4 -7 9 -7 13 1 4 6 2 11 -4 11 -6 0 -8 5 -4 11 5 8 10 7 16 -4 6 -12 -8
-37 -57 -99 -36 -45 -65 -87 -65 -93 1 -12 30 22 105 122 62 84 52 53 -15 -47
-34 -50 -60 -94 -56 -97 3 -4 7 -4 9 -2 2 2 27 41 56 87 61 93 82 105 28 15
-49 -83 -69 -123 -59 -123 5 0 32 45 61 101 29 55 55 98 57 96 3 -2 -16 -48
-41 -102 -44 -95 -55 -129 -36 -110 11 12 91 192 91 205 0 5 -17 18 -37 29
-21 11 -33 20 -28 21 10 0 -15 20 -25 19 -3 0 -43 -35 -90 -79z"/>
<path d="M1245 1270 c4 -14 15 -36 24 -50 9 -14 30 -50 45 -80 32 -61 46 -80
46 -62 0 12 -28 64 -85 157 -20 33 -34 49 -30 35z"/>
<path d="M856 1214 c-33 -35 -56 -67 -53 -71 4 -3 26 16 49 43 24 26 51 56 61
66 9 10 17 20 17 23 0 14 -20 -3 -74 -61z"/>
<path d="M1220 1272 c0 -8 -5 -10 -12 -6 -8 5 -9 2 -4 -12 4 -10 9 -26 12 -34
8 -34 60 -169 67 -176 10 -11 9 23 -2 44 -17 30 -61 150 -61 164 0 7 21 -32
46 -87 50 -108 52 -111 59 -103 3 2 -9 32 -25 66 -17 34 -30 64 -30 66 0 2
-11 24 -25 47 -14 24 -25 38 -25 31z"/>
<path d="M1003 1150 c-23 -61 -36 -109 -31 -108 10 4 81 208 74 215 -2 2 -21
-46 -43 -107z"/>
<path d="M1035 1158 c-15 -57 -30 -109 -33 -115 -2 -7 0 -13 6 -13 8 0 18 26
27 70 8 45 39 150 42 146 2 -2 -1 -30 -7 -63 -6 -32 -13 -67 -14 -78 -2 -11
-6 -35 -10 -52 -5 -22 -4 -33 3 -33 6 0 11 8 12 18 0 9 2 28 5 42 27 162 27
180 5 180 -4 0 -20 -46 -36 -102z"/>
<path d="M1099 1228 c0 -18 -2 -42 -4 -53 -10 -54 -14 -168 -6 -159 11 10 27
244 17 244 -3 0 -6 -15 -7 -32z"/>
<path d="M1161 1245 c-1 -17 -3 -17 -11 -5 -9 13 -10 13 -10 0 0 -11 -2 -12
-8 -3 -5 7 -9 -41 -10 -108 -1 -66 1 -118 6 -115 4 2 7 50 7 106 0 56 3 104 7
106 4 3 9 -24 9 -60 1 -36 3 -70 4 -76 1 -5 3 -26 4 -46 0 -19 5 -33 10 -29 6
3 8 15 6 26 -2 11 -7 59 -11 107 -7 90 0 110 11 32 3 -25 8 -52 10 -60 2 -8 6
-33 10 -54 3 -22 8 -42 10 -45 12 -11 13 8 4 47 -5 23 -12 58 -15 77 -8 51
-32 123 -33 100z"/>
<path d="M1184 1243 c13 -43 49 -179 51 -192 1 -8 7 -17 13 -19 8 -2 6 14 -4
50 -27 94 -55 178 -60 178 -3 0 -3 -8 0 -17z"/>
</g>
</svg>
